<svg id="Layer_11" data-name="Layer 11" xmlns="http://www.w3.org/2000/svg" viewBox="0 0 1142.3 1080"><defs><style>.cls-1{fill:#5580a8;}</style></defs><g id="Dbsr53.tif"><path class="cls-1" d="M494.38,151.88c2.1,12.16,4,24.37,6.41,36.47a139.47,139.47,0,0,0,5.3,18.79c1.31,3.76,4.7,6.86,8.57,4.94,2.16-1.06,3.55-5.32,3.76-8.25.28-3.78-.92-7.68-1.56-11.52-.79-4.77-.36-9.36,3.22-12.83a7.1,7.1,0,0,1,5.59-1.69,5.61,5.61,0,0,1,3.39,4.12c.15,3.63-.76,7.28-1.06,10.94-.37,4.48-1.51,9.17-.64,13.43a54.17,54.17,0,0,0,15.37,28c7.62,7.5,12.46,6,15.1-4.18,1-3.76,1.53-7.72,3.17-11.17.8-1.7,3.63-2.43,5.54-3.59,1,1.87,3.08,4,2.74,5.56-1.28,6-2.64,12.19-5.27,17.68-8,16.6-15.66,33.28-19.22,51.49-.82,4.21-1.15,8.51-1.86,13.93,5.78-4.14,10.05-7.74,14.83-10.41,2.45-1.37,5.81-1.09,8.76-1.56-.29,3,.24,6.46-1,9a92,92,0,0,1-10.1,15.49,13,13,0,0,1-7.66,4c-5.34.8-7.62,4-8.6,8.66a37.57,37.57,0,0,0-1,7.36c-.13,25.28-1.42,50.63.08,75.81,2.15,36.25,14,69,42.45,93.56,17.56,15.19,38.22,25.34,59.17,35C664.17,552,689.68,558.75,716,563c8.88,1.44,16.74,4.4,23.81,10.54,5.77,5,13,8.5,19.78,12.16a23.39,23.39,0,0,0,23,0c9-4.85,17.73-10.24,26.25-15.89,2-1.36,3.47-4.52,4-7.1,1.35-6.18,2-12.51,3.05-19.48a50.06,50.06,0,0,1,13.42,21.49c5.64,17.65-3.7,32-22.07,34.42-6.83.89-13.73,1.53-20.4,3.14-8,1.93-10.22,6.26-8.34,14.26.93,4,2.76,7.86,2.84,11.82.11,5.86.61,12.52-1.8,17.51-15.81,32.86-10.81,63.66,8.29,93.08,6.43,9.9,13.37,19.76,21.62,28.13,13,13.2,16.82,28.31,14.5,46.11a121,121,0,0,0,3.91,50.46c2.84,9.58,6.62,18.52,16.07,24,5.71,3.32,8.24,21.18,4.16,26.65-.86,1.15-3.52,1.52-5.23,1.3-1.35-.17-2.65-1.66-3.74-2.79-8.58-8.92-17-17.95-25.65-26.85-6.91-7.15-9.43-15.89-10.17-25.53-1-12.35-1.88-24.72-3.58-37-3.62-25.91-18.46-45.69-36.85-62.8-8.46-7.87-18.75-13.8-28.41-20.32-11.28-7.61-22.92-14.69-34.13-22.39A62.23,62.23,0,0,1,677,688.33c-1.52-4-3.41-7.77-5.07-11.67-4.32-10.1-11.64-16.95-21.68-21.42C625.75,644.32,600,637.39,573.84,632c-45-9.29-88.81-22.26-130.49-41.7-11.63-5.43-22.26-13-33.42-19.42-9.79-5.66-19.66-11.16-29.54-16.66-2.41-1.34-5-2.4-8-3.85-.34,1.92-.81,3.08-.71,4.18,1.57,16.91,2.95,33.84,5,50.68.43,3.52,3,7.11,5.37,10,3.39,4,7.67,7.33,11.35,11.15,3.07,3.2,4.92,6.93,3.23,11.58-2.83,7.8-7.37,9.48-14,4.64-12.53-9.14-23.64-20-31.93-33-2.93-4.61-3-11.44-3.17-17.29s1.2-12,1.94-17.92c1.17-9.43-1.39-17.72-6.89-25.44-4.57-6.42-8.53-13.27-12.76-19.94v-7.43c4.71-9.27,12.86-12.68,22.62-12.84a109.31,109.31,0,0,1,51.62,11.88,176.85,176.85,0,0,0,21.69,9.64c5.7,2,7.78-.55,8.67-6.39,1.12-7.44,2.38-15,4.9-22,4.57-12.8,10.17-25.22,15.22-37.85,5.92-14.8,11.52-29.81,12.7-45.8,1-13,.45-26.15.59-39.22.11-10-3-14.63-12.46-17.85-4.84-1.64-9.89-2.66-14.73-4.31a169,169,0,0,1-17.27-6.63c-5.36-2.52-8.82-6.75-9.48-13.11-.29-2.69-1.81-5.29-3-7.84-1.53-3.37-3.3-6.63-4.9-10s-.3-4.58,3.12-4.58c6.89,0,13.79,0,20.68-.2,12.42-.43,24.47-2.26,36.06-7.45a54.51,54.51,0,0,1,18.47-4.09c10.21-.64,20.49-.09,30.74-.22a7,7,0,0,0,4.48-1.59A105.68,105.68,0,0,0,529,290.69c2.85-3.65,6.77-7.37,7.53-11.55,1.87-10.43-1.36-28.51-15.74-36.1-9.37-4.95-18.49-10.41-27.45-16.07-11.94-7.54-24.15-14.9-32.8-26.51-5.32-7.14-3.05-18.39,5.44-24.19,2.84,14.28,10.82,24.91,22.77,34.63.21-3.73.49-5.94.43-8.15-.34-12.73-1.15-25.46-.95-38.17.07-4.26,2.64-8.47,4.07-12.7Z"/></g></svg>