<svg id="Layer_12" data-name="Layer 12" xmlns="http://www.w3.org/2000/svg" viewBox="0 0 1142.3 1080"><defs><style>.cls-1{fill:#fff;}.cls-2{fill:#f0f0f0;}.cls-3{fill:#f26d21;}.cls-4{fill:#d4d4d4;}.cls-5{fill:#c97246;}</style></defs><path class="cls-1" d="M507,591.09c0,51-.14,100.28.35,149.55,0,2.94,4.61,7.5,7.91,8.47,24.68,7.3,49.56,6.1,74.51.66,7.34-1.61,10.32-4.45,10.24-12.6-.45-45.39-.2-90.78-.24-136.17,0-3-.41-6-.69-9.8C568.2,600.1,538.18,600.41,507,591.09Z"/><path class="cls-1" d="M552.13,529.29l2.78-.33c4.44,15.86,8.87,31.73,13.27,47.47,9.14-5.9,14.36-15.69,10.63-25.68-7.46-20-16.35-39.48-25.25-60.57-8.85,20.71-17.51,39.51-24.9,58.81-4.5,11.75,1.46,23.63,10.26,26.7Z"/><path class="cls-1" d="M608,859.94l1.61-.68a14,14,0,0,0-1.76-.59c-.27-.06-.6.19-.9.3Z"/><path class="cls-1" d="M652.55,860l1.58-.68a12.47,12.47,0,0,0-1.75-.6c-.27,0-.6.19-.9.29Z"/><path class="cls-2" d="M507,591.09c31.15,9.32,61.17,9,92.08.11.28,3.83.69,6.81.69,9.8,0,45.39-.21,90.78.24,136.17.08,8.15-2.9,11-10.24,12.6-24.95,5.44-49.83,6.64-74.51-.66-3.3-1-7.88-5.53-7.91-8.47C506.89,691.37,507,642.1,507,591.09Z"/><path class="cls-3" d="M552.13,529.29l-13.21,46.4c-8.8-3.07-14.76-15-10.26-26.7,7.39-19.3,16.05-38.1,24.9-58.81,8.9,21.09,17.79,40.56,25.25,60.57,3.73,10-1.49,19.78-10.63,25.68-4.4-15.74-8.83-31.61-13.27-47.47Z"/><path d="M608,859.94l-1.05-1c.3-.11.63-.36.9-.3a14,14,0,0,1,1.76.59Z"/><path d="M652.55,860l-1.07-1c.3-.1.63-.34.9-.29a12.47,12.47,0,0,1,1.75.6Z"/><polygon class="cls-4" points="548.95 597.87 548.9 753.2 578.33 751.22 598.78 747.11 598.85 590.92 571.7 596.19 548.95 597.87"/><path class="cls-5" d="M553.56,490.18c8.41,19.44,18.8,41.49,24.81,59.46,4.23,12.63-2.79,22.86-13.09,29.35,2-18.44-7.38-33.69-10.69-50.65"/></svg>