<svg id="Layer_11" data-name="Layer 11" xmlns="http://www.w3.org/2000/svg" viewBox="0 0 1142.3 1080"><defs><style>.cls-1{fill:#fff;}.cls-2{fill:#f0f0f0;}.cls-3{fill:#f26d21;}.cls-4{fill:#d4d4d4;}.cls-5{fill:#c97246;}</style></defs><g id="SZUmi1"><path class="cls-1" d="M505.55,498.54a37.66,37.66,0,0,0-.81,4.75c-.09,77.94-.25,155.89.11,233.83,0,3.39,4.08,8.35,7.48,9.87,25.2,11.29,50.75,9.87,76.46,1.06,7.89-2.7,11.13-6.4,11.08-15.48-.46-74.3-.26-148.6-.29-222.91,0-3.41-.33-6.83-.57-11.4C567.53,511.61,536.84,513.31,505.55,498.54Zm44.6-81.31c5.47,23.86,20.3,44.91,17.07,70.86,17-9.13,24.46-26.07,17.85-42.64-11-27.59-23-54.76-34.8-82.5-12,28-24.57,55.3-35.37,83.32-6.67,17.29,2.87,35.33,19.08,42.07C528.38,462.42,545.48,441.35,550.15,417.23Z"/><path class="cls-2" d="M505.55,498.54c31.29,14.77,62,13.07,93.46-.28.24,4.57.57,8,.57,11.4,0,74.31-.17,148.61.29,222.91,0,9.08-3.19,12.78-11.08,15.48-25.71,8.81-51.26,10.23-76.46-1.06-3.4-1.52-7.47-6.48-7.48-9.87-.36-77.94-.2-155.89-.11-233.83A37.66,37.66,0,0,1,505.55,498.54Z"/><path class="cls-3" d="M550.15,417.23c-4.67,24.12-21.77,45.19-16.17,71.11-16.21-6.74-25.75-24.78-19.08-42.07,10.8-28,23.38-55.35,35.37-83.32,11.77,27.74,23.81,54.91,34.8,82.5,6.61,16.57-.84,33.51-17.85,42.64C570.45,462.14,555.62,441.09,550.15,417.23Z"/></g><polygon class="cls-4" points="548.62 508.92 548.57 755.13 578.78 751.98 599.77 745.48 599.84 497.9 571.98 506.26 548.62 508.92"/><path class="cls-5" d="M550.28,362.38c11.77,27.75,23.81,54.92,34.81,82.51,6.6,16.56-.84,33.5-17.86,42.64,3.23-26-11.59-47-17.07-70.86"/></svg>