<svg id="Layer_1" data-name="Layer 1" xmlns="http://www.w3.org/2000/svg" viewBox="0 0 1142.3 1080"><defs><style>.cls-1{fill:#f26f57;}.cls-2{fill:#fff;}.cls-3{fill:#f5ba18;}.cls-4{fill:#e5a32b;}.cls-5{fill:#ead39a;}</style></defs><polygon class="cls-1" points="304.35 481.74 562.9 308.6 821.06 471.81 565.83 672.94 304.35 481.74"/><rect class="cls-2" x="422.25" y="391.57" width="288.65" height="378.61" rx="7.54"/><polygon class="cls-3" points="304.35 481.74 305.64 758.64 321.17 778.05 550.2 631.84 304.35 481.74 304.35 481.74"/><polygon class="cls-3" points="821.06 471.81 819.76 748.71 804.24 768.16 575.21 621.91 821.06 471.81 821.06 471.81"/><polygon class="cls-4" points="308.06 762.49 495.99 599.05 547.91 628.46 563.53 628.51 615.31 597.29 804.24 768.16 792.89 778.38 321.69 778.38 308.06 762.49"/><path class="cls-5" d="M445.73,472.4l11-10.23c3.59-3.32,7.05-6.92,10.85-10L466,453.41a8,8,0,0,1,1.34-.81l-1.88.79a4.16,4.16,0,0,1,.71-.21l-2.09.29a2.23,2.23,0,0,1,.73,0l-2.09-.28a2.69,2.69,0,0,1,.67.19l-1.88-.79a2.47,2.47,0,0,1,.54.34l-1.59-1.22a2.45,2.45,0,0,1,.45.46l-1.23-1.59a7,7,0,0,1,.83,1.46l-.79-1.87A55.18,55.18,0,0,1,463,463l-.28-2.09c.44,3.31.44,6.58.57,9.9a15.11,15.11,0,0,0,1.79,7.19,12.48,12.48,0,0,0,6.75,5.41c3.58,1.27,7.52.69,11.14-.08a43.24,43.24,0,0,0,7.11-2.18c10.05-4,18.56-10.38,27.46-16.39a87.49,87.49,0,0,1,14.7-8.37l-1.88.8a42.13,42.13,0,0,1,10.26-2.89l-2.09.28a26,26,0,0,1,6.23-.17l-2.09-.28a12.87,12.87,0,0,1,3,.76l-1.88-.8a10,10,0,0,1,2,1.16L544.14,454a10.82,10.82,0,0,1,1.45,1.5l-1.23-1.59a14.22,14.22,0,0,1,1.52,2.72l-.79-1.87c1.09,2.63,1.88,5.37,3,8a20,20,0,0,0,4.77,6.74,27.66,27.66,0,0,0,16.78,6.85c6.49.53,12.83-1.55,18.69-4.08,5.5-2.37,10.74-5.35,16-8.14l9.22-4.86c2.84-1.5,5.65-3.08,8.61-4.35l-1.88.79a26.85,26.85,0,0,1,6.19-1.83l-2.08.28a15,15,0,0,1,3.54-.06l-2.09-.28a10.91,10.91,0,0,1,2.31.6l-1.88-.79a9.51,9.51,0,0,1,2.11,1.24l-1.59-1.23a10.46,10.46,0,0,1,1.53,1.59l-1.23-1.59a12.66,12.66,0,0,1,1.36,2.4l-.79-1.87c1.32,3.18,1.66,6.66,2.8,9.9a21.81,21.81,0,0,0,4,7.24,16.42,16.42,0,0,0,7.23,4.63c4.81,1.67,10.45.73,15.16-.81,5.16-1.69,10.2-3.89,15.18-6q7.88-3.42,15.47-7.39A7.91,7.91,0,0,0,690.4,451a8,8,0,0,0-10.74-2.82Q671,452.67,662,456.47l1.88-.79c-5.14,2.16-10.5,4.68-16.06,5.52l2.09-.28a16.71,16.71,0,0,1-4.12.06l2.09.28a11.48,11.48,0,0,1-2.43-.65l1.88.79a9.87,9.87,0,0,1-1.89-1.09l1.59,1.23a9.71,9.71,0,0,1-1.57-1.57l1.23,1.59a12.38,12.38,0,0,1-1.5-2.65l.79,1.87c-1.4-3.49-1.72-7.29-3.14-10.78A16.8,16.8,0,0,0,628,438.41c-5.45-.62-11,1.59-15.8,3.92-5,2.43-9.91,5.18-14.85,7.78-5.58,2.94-11.11,6.11-16.91,8.61l1.88-.79a39.44,39.44,0,0,1-9.92,2.87l2.09-.28a24.1,24.1,0,0,1-5.88,0l2.09.28a21.88,21.88,0,0,1-5.49-1.48l1.88.8a18.54,18.54,0,0,1-3.61-2.09l1.58,1.23a15.69,15.69,0,0,1-2.69-2.65l1.23,1.59a16.21,16.21,0,0,1-1.9-3.37l.79,1.87c-1.25-3.07-2-6.31-3.61-9.26a16.67,16.67,0,0,0-10.11-8.1,25.33,25.33,0,0,0-10.22-.48,46.76,46.76,0,0,0-9.22,2c-10.67,3.6-19.6,10.34-28.8,16.61A92.21,92.21,0,0,1,485,466.41l1.87-.79a42.92,42.92,0,0,1-10.41,3l2.08-.28a13.38,13.38,0,0,1-2.9.07l2.09.28a7.47,7.47,0,0,1-1.69-.42l1.87.8a7,7,0,0,1-.89-.49l1.59,1.22a5.51,5.51,0,0,1-.75-.7l1.22,1.59a6.25,6.25,0,0,1-.57-.93l.79,1.88a7.31,7.31,0,0,1-.47-1.78l.28,2.09c-.21-2-.08-3.95-.18-5.91a78.92,78.92,0,0,0-.89-8.13,54.16,54.16,0,0,0-3.5-12.87,11.43,11.43,0,0,0-7.39-7c-4.14-1.17-8,.77-11.05,3.39-3.45,3-6.7,6.19-10,9.28l-11.4,10.56a7.93,7.93,0,0,0,0,11.11,8,8,0,0,0,11.11,0Z"/><path class="cls-5" d="M450.41,537.24l11-10.22c3.58-3.32,7.05-6.93,10.85-10l-1.59,1.22a7.45,7.45,0,0,1,1.33-.8l-1.88.79a3,3,0,0,1,.71-.21l-2.09.28a2.24,2.24,0,0,1,.73,0l-2.09-.29a2.59,2.59,0,0,1,.67.2l-1.88-.79a2.15,2.15,0,0,1,.54.34l-1.59-1.23a2.79,2.79,0,0,1,.45.46l-1.22-1.59a7.28,7.28,0,0,1,.82,1.47l-.79-1.88a55.43,55.43,0,0,1,3.24,12.85l-.28-2.08c.44,3.3.44,6.57.57,9.89a15.15,15.15,0,0,0,1.79,7.2,12.45,12.45,0,0,0,6.75,5.4c3.58,1.28,7.52.69,11.14-.07a44,44,0,0,0,7.11-2.19c10.05-4,18.56-10.37,27.46-16.39a87.14,87.14,0,0,1,14.7-8.36L535,522a41.91,41.91,0,0,1,10.25-2.88l-2.08.28a25.89,25.89,0,0,1,6.22-.18l-2.09-.28a13.39,13.39,0,0,1,3,.76l-1.88-.79a9.6,9.6,0,0,1,2,1.16l-1.59-1.23a9.3,9.3,0,0,1,1.44,1.5L549,518.78a14.22,14.22,0,0,1,1.52,2.72l-.79-1.88c1.09,2.64,1.88,5.37,3,8a19.84,19.84,0,0,0,4.76,6.73c4.67,4.28,10.55,6.34,16.78,6.85,6.49.53,12.83-1.55,18.69-4.08,5.5-2.37,10.74-5.35,16-8.14l9.22-4.85c2.84-1.5,5.65-3.09,8.61-4.35l-1.88.79a26.81,26.81,0,0,1,6.2-1.84l-2.09.29a14,14,0,0,1,3.54-.06l-2.09-.28a10.75,10.75,0,0,1,2.31.6l-1.87-.79a9.63,9.63,0,0,1,2.1,1.23l-1.59-1.22a9.66,9.66,0,0,1,1.54,1.59l-1.23-1.59a12.85,12.85,0,0,1,1.35,2.4l-.79-1.88c1.32,3.19,1.66,6.66,2.8,9.91a21.76,21.76,0,0,0,4.05,7.23,16.48,16.48,0,0,0,7.23,4.63c4.81,1.67,10.45.74,15.16-.81,5.16-1.68,10.21-3.88,15.19-6q7.86-3.41,15.47-7.39a7.91,7.91,0,0,0,2.81-10.74A8,8,0,0,0,684.34,513q-8.65,4.53-17.66,8.32l1.87-.79c-5.14,2.16-10.5,4.69-16.06,5.52l2.09-.28a16.15,16.15,0,0,1-4.11.06l2.08.28a10.69,10.69,0,0,1-2.42-.65l1.87.8a10.78,10.78,0,0,1-1.89-1.09l1.59,1.23a11.09,11.09,0,0,1-1.57-1.57l1.23,1.59a13.38,13.38,0,0,1-1.5-2.66l.79,1.88c-1.4-3.49-1.72-7.3-3.13-10.78a16.83,16.83,0,0,0-14.88-11.6c-5.45-.61-11,1.6-15.8,3.92-5,2.44-9.91,5.19-14.85,7.79-5.58,2.94-11.1,6.1-16.9,8.6l1.87-.79a38.93,38.93,0,0,1-9.92,2.88l2.09-.28a24,24,0,0,1-5.87,0l2.08.28a22.1,22.1,0,0,1-5.48-1.47l1.87.79a18,18,0,0,1-3.61-2.08l1.59,1.23a15.39,15.39,0,0,1-2.69-2.66l1.22,1.59a16,16,0,0,1-1.9-3.37l.79,1.88c-1.24-3.08-2-6.31-3.61-9.27a16.6,16.6,0,0,0-10.11-8.09,25.29,25.29,0,0,0-10.21-.49,46.86,46.86,0,0,0-9.23,2c-10.67,3.61-19.6,10.35-28.8,16.61a91.53,91.53,0,0,1-15.54,8.94l1.88-.79a43.12,43.12,0,0,1-10.42,3l2.09-.28a13.48,13.48,0,0,1-2.91.08l2.09.28a7.47,7.47,0,0,1-1.69-.42l1.87.79a7.08,7.08,0,0,1-.89-.49l1.59,1.23a6.22,6.22,0,0,1-.75-.7l1.23,1.59a6,6,0,0,1-.58-.93l.79,1.87a8.25,8.25,0,0,1-.47-1.77l.28,2.09c-.21-2-.07-3.95-.17-5.92a79.06,79.06,0,0,0-.9-8.12,54,54,0,0,0-3.5-12.87,11.4,11.4,0,0,0-7.39-7c-4.14-1.18-8,.77-11,3.39-3.45,3-6.7,6.19-10,9.27l-11.4,10.57a7.91,7.91,0,0,0,0,11.1,8,8,0,0,0,11.11,0Z"/></svg>