<svg id="Layer_3" data-name="Layer 3" xmlns="http://www.w3.org/2000/svg" viewBox="0 0 1142.3 1080"><defs><style>.cls-1{fill:#a27ba2;}.cls-2{fill:#fff;}.cls-3{fill:#fff4d7;}.cls-4{fill:#e5cfab;}.cls-5{fill:#ead39a;}</style></defs><polygon class="cls-1" points="306.06 482.13 563.12 309.99 819.8 472.26 566.04 672.23 306.06 482.13"/><rect class="cls-2" x="423.28" y="392.48" width="286.99" height="376.44" rx="7.54"/><polygon class="cls-3" points="306.06 482.13 307.35 757.44 322.79 776.74 550.5 631.36 306.06 482.13 306.06 482.13"/><polygon class="cls-3" points="819.8 472.26 818.51 747.57 803.08 766.91 575.37 621.49 819.8 472.26 819.8 472.26"/><polygon class="cls-4" points="309.75 761.26 496.6 598.77 548.22 628 563.75 628.05 615.24 597.02 803.08 766.91 791.79 777.07 323.3 777.07 309.75 761.26"/><path class="cls-5" d="M446.63,472.84l11-10.18c3.56-3.29,7-6.87,10.78-9.92L466.81,454a7.37,7.37,0,0,1,1.32-.8l-1.86.78a3.31,3.31,0,0,1,.7-.2l-2.08.28a2.54,2.54,0,0,1,.73,0l-2.08-.28a2.34,2.34,0,0,1,.67.2l-1.87-.79a2.57,2.57,0,0,1,.54.34l-1.58-1.22a3.19,3.19,0,0,1,.44.46l-1.22-1.58a7.17,7.17,0,0,1,.83,1.45l-.79-1.86a55.2,55.2,0,0,1,3.22,12.78l-.28-2.08c.44,3.29.44,6.54.57,9.84a14.83,14.83,0,0,0,1.78,7.15,12.45,12.45,0,0,0,6.71,5.38c3.57,1.27,7.48.68,11.08-.08a42.9,42.9,0,0,0,6.95-2.12c10.05-4,18.54-10.35,27.43-16.36A87.79,87.79,0,0,1,532.56,457l-1.86.79a41.86,41.86,0,0,1,10.24-2.89l-2.07.28a25.72,25.72,0,0,1,6.2-.17l-2.08-.28a12.57,12.57,0,0,1,3,.75l-1.86-.79a10.17,10.17,0,0,1,2,1.15l-1.58-1.22a10.08,10.08,0,0,1,1.43,1.49l-1.22-1.58a13.58,13.58,0,0,1,1.51,2.71l-.78-1.87c1.08,2.62,1.86,5.34,3,7.95a19.74,19.74,0,0,0,4.73,6.7,27.51,27.51,0,0,0,16.69,6.81c6.45.52,12.75-1.54,18.58-4.06,5.47-2.35,10.68-5.32,15.94-8.09l9.17-4.83c2.84-1.5,5.66-3.09,8.63-4.36l-1.87.79a26,26,0,0,1,6.28-1.82l-2.08.28a14.54,14.54,0,0,1,3.23,0l-2.08-.28A10.51,10.51,0,0,1,628,455l-1.86-.79a9.92,9.92,0,0,1,2.13,1.25l-1.58-1.22a9.71,9.71,0,0,1,1.36,1.36L626.81,454a12.55,12.55,0,0,1,1.55,2.68l-.79-1.87c1.3,3.17,1.63,6.63,2.78,9.84,2,5.57,5.58,9.92,11.36,11.8,4.84,1.57,10.37.64,15.09-.92,5.06-1.69,10-3.83,14.91-5.95q7.83-3.39,15.38-7.35a7.85,7.85,0,0,0,2.8-10.68,8,8,0,0,0-10.68-2.8q-8.61,4.5-17.56,8.27l1.87-.78c-5.12,2.14-10.44,4.66-16,5.48l2.08-.28a16.55,16.55,0,0,1-4.1.07l2.08.27a11.22,11.22,0,0,1-2.42-.64l1.87.79a10.64,10.64,0,0,1-1.88-1.08l1.58,1.22a10.2,10.2,0,0,1-1.57-1.58l1.22,1.58a12,12,0,0,1-1.38-2.4l.78,1.86c-1.47-3.5-1.77-7.35-3.18-10.87a18.32,18.32,0,0,0-4.77-7.37A17.65,17.65,0,0,0,627.71,439c-5.52-.54-11.08,1.68-15.92,4.07s-9.79,5.13-14.67,7.7c-5.48,2.89-10.9,6-16.59,8.44l1.86-.79a38.86,38.86,0,0,1-9.86,2.86l2.08-.28a23.77,23.77,0,0,1-5.84,0l2.07.28a21.87,21.87,0,0,1-5.45-1.47l1.86.79a18.59,18.59,0,0,1-3.59-2.07l1.58,1.22a15.94,15.94,0,0,1-2.68-2.64l1.22,1.58a15.78,15.78,0,0,1-1.89-3.35l.79,1.87c-1.24-3.06-2-6.28-3.59-9.21A16.53,16.53,0,0,0,549,440a25.22,25.22,0,0,0-10.16-.49,47.41,47.41,0,0,0-9.21,2c-10.54,3.57-19.38,10.22-28.47,16.42a92.48,92.48,0,0,1-15.52,8.95l1.86-.79a42.71,42.71,0,0,1-10.4,3l2.08-.28a13.31,13.31,0,0,1-2.89.08l2.08.28a7.47,7.47,0,0,1-1.69-.42l1.87.79a7,7,0,0,1-.89-.49l1.58,1.22a5.51,5.51,0,0,1-.75-.7l1.22,1.58a6.15,6.15,0,0,1-.57-.92l.79,1.86a7,7,0,0,1-.47-1.76l.28,2.08c-.21-1.95-.08-3.93-.18-5.89-.13-2.63-.46-5.24-.85-7.84a53.93,53.93,0,0,0-3.52-13,11.47,11.47,0,0,0-7.16-6.89c-4.07-1.26-8,.63-11,3.21-3.42,2.91-6.63,6.11-9.92,9.16L435.58,461.8a7.88,7.88,0,0,0,0,11,8,8,0,0,0,11.05,0Z"/><path class="cls-5" d="M451.28,537.31l11-10.17c3.56-3.3,7-6.88,10.77-9.93l-1.58,1.22a7.82,7.82,0,0,1,1.33-.8l-1.87.79a2.9,2.9,0,0,1,.71-.21l-2.08.28a2.48,2.48,0,0,1,.72,0l-2.08-.27a2.15,2.15,0,0,1,.67.19L467,517.6a2.28,2.28,0,0,1,.53.34L466,516.72a2.79,2.79,0,0,1,.45.46l-1.22-1.58a7.2,7.2,0,0,1,.82,1.46l-.79-1.87A55.22,55.22,0,0,1,468.44,528l-.28-2.08c.43,3.29.43,6.54.56,9.84a15.06,15.06,0,0,0,1.78,7.15,12.51,12.51,0,0,0,6.72,5.38c3.56,1.27,7.48.69,11.08-.08a43.52,43.52,0,0,0,6.95-2.12c10-4,18.54-10.35,27.43-16.36a86.63,86.63,0,0,1,14.54-8.27l-1.87.78a42.06,42.06,0,0,1,10.25-2.89l-2.08.28a25.74,25.74,0,0,1,6.2-.17l-2.07-.28a12.82,12.82,0,0,1,3,.75l-1.87-.79a9.64,9.64,0,0,1,2,1.16L549.13,519a9.66,9.66,0,0,1,1.44,1.49L549.35,519a14.66,14.66,0,0,1,1.51,2.71l-.79-1.86c1.09,2.61,1.87,5.33,3,8a20,20,0,0,0,4.74,6.69,27.49,27.49,0,0,0,16.68,6.81c6.45.53,12.76-1.54,18.59-4,5.46-2.36,10.67-5.33,15.93-8.1l9.17-4.83c2.85-1.5,5.67-3.09,8.63-4.35l-1.86.78a26.35,26.35,0,0,1,6.27-1.82l-2.07.28a15.16,15.16,0,0,1,3.23,0l-2.08-.28a10.65,10.65,0,0,1,2.35.59l-1.87-.79a9.75,9.75,0,0,1,2.14,1.25l-1.58-1.22a10.36,10.36,0,0,1,1.36,1.37l-1.22-1.59a12.51,12.51,0,0,1,1.54,2.68l-.79-1.87c1.3,3.18,1.63,6.63,2.79,9.85,2,5.57,5.58,9.91,11.36,11.79,4.84,1.57,10.37.64,15.08-.92,5.07-1.69,10-3.83,14.92-6q7.82-3.39,15.38-7.35a7.87,7.87,0,0,0,2.8-10.68,8,8,0,0,0-10.68-2.8q-8.61,4.5-17.56,8.28l1.86-.79c-5.11,2.14-10.44,4.66-16,5.49l2.07-.28a16.47,16.47,0,0,1-4.09.06l2.07.28a11.31,11.31,0,0,1-2.41-.65l1.87.79a10,10,0,0,1-1.88-1.08l1.58,1.22a10.26,10.26,0,0,1-1.58-1.58l1.22,1.58a13,13,0,0,1-1.38-2.4l.79,1.86c-1.47-3.5-1.77-7.35-3.19-10.87a18.29,18.29,0,0,0-4.77-7.36,17.66,17.66,0,0,0-10.14-4.25c-5.52-.54-11.09,1.68-15.93,4.07s-9.78,5.13-14.66,7.7c-5.48,2.89-10.9,6-16.6,8.44l1.87-.79a39,39,0,0,1-9.86,2.87l2.08-.28a24.36,24.36,0,0,1-5.85,0l2.08.28a22,22,0,0,1-5.46-1.46l1.87.78a18.38,18.38,0,0,1-3.6-2.07l1.58,1.22a14.83,14.83,0,0,1-2.67-2.64l1.22,1.58a15.35,15.35,0,0,1-1.89-3.35l.78,1.87c-1.24-3.06-2-6.28-3.58-9.21a16.56,16.56,0,0,0-10.06-8,25.27,25.27,0,0,0-10.17-.48,46.57,46.57,0,0,0-9.2,2c-10.55,3.57-19.38,10.22-28.47,16.42a92.48,92.48,0,0,1-15.52,9l1.86-.79a42.84,42.84,0,0,1-10.4,3l2.07-.28a13.2,13.2,0,0,1-2.88.08l2.07.28a7.52,7.52,0,0,1-1.68-.42l1.86.79a6.34,6.34,0,0,1-.88-.49l1.58,1.22a5.43,5.43,0,0,1-.75-.69l1.22,1.58a6,6,0,0,1-.57-.93l.78,1.87a7.69,7.69,0,0,1-.46-1.77l.27,2.08c-.21-2-.07-3.93-.17-5.88-.14-2.63-.47-5.25-.85-7.85a53.85,53.85,0,0,0-3.52-13,11.41,11.41,0,0,0-7.17-6.89c-4.06-1.26-8,.62-11,3.2-3.42,2.91-6.62,6.11-9.92,9.17l-11.53,10.68a7.87,7.87,0,0,0,0,11,8,8,0,0,0,11,0Z"/></svg>