<svg id="Layer_6" data-name="Layer 6" xmlns="http://www.w3.org/2000/svg" viewBox="0 0 1142.3 1080"><defs><style>.cls-1{fill:#5ea7ac;}.cls-2{fill:#85d1dc;}.cls-3{fill:#bbe4ea;}.cls-4{fill:#fff;}.cls-5{fill:#e4dedb;}.cls-6{fill:#97daf7;}.cls-7{fill:#43a6c8;}</style></defs><polygon class="cls-1" points="540.67 915.69 945.02 833.03 945.02 401.44 545.84 423.8 540.67 915.69"/><polygon class="cls-1" points="220.06 501.57 213.38 815.5 540.67 915.69 553.13 461.91 220.06 501.57"/><polygon class="cls-2" points="205.38 378.73 201.74 532.29 542.04 620.19 531.7 448.14 205.38 378.73"/><polygon class="cls-2" points="531.7 448.14 962.21 384.01 961.22 536.8 542.04 620.19 531.7 448.14"/><polygon class="cls-3" points="205.38 378.73 541.72 307.87 962.21 384.01 531.7 448.14 205.38 378.73"/><polygon class="cls-4" points="315.11 403.19 310.57 561.11 425.86 591.23 438.4 432.91 857.63 365.55 660.55 332.33 315.11 403.19"/><polygon class="cls-4" points="326.05 353.95 677.41 429.38 679.39 596.13 806.44 572.31 804.46 411.52 445.15 328.14 326.05 353.95"/><polygon class="cls-5" points="332.13 566.5 325.22 849.77 439.3 884.63 449.81 596.66 332.13 566.5"/><polygon class="cls-5" points="664.16 596.46 664.14 890.45 788.54 865.01 786.18 576.3 664.16 596.46"/><path class="cls-6" d="M463.34,228.84c-47.13-26.27-113.29-26.5-149,13.93C295.61,264,287.94,292.52,273.7,317c-12.18,20.9-29.63,46.54-15.8,66.39,7.58,10.88,21.91,14.47,35.09,16,76.14,8.64,151.89-25.64,228.27-19.52,33.82,2.7,66.46,13.25,98.72,23.73L639.9,410c37,12,74,24,111.89,32.93,14.53,3.41,30.52,6.2,43.79-.62,13.76-7.07,20.71-22.37,28.08-36a235.3,235.3,0,0,1,65-75.42c20.57-15.48,47-35.88,39.1-60.38-4-12.4-16-20.22-27.45-26.47-55.89-30.53-121.76-48-183.8-33.57-65.42,15.21-131.74,85.24-143.6,149.74C535.71,370.84,500.75,247.62,463.34,228.84Z"/><path class="cls-6" d="M600.58,339.83c0,24.94-15.33,45.17-34.24,45.17s-34.25-20.23-34.25-45.17S600.58,314.88,600.58,339.83Z"/><path class="cls-7" d="M302.9,337.81c-15.29.59-33.73,4.46-38.64,18.95-4.06,12,4.52,25.42,16,30.73s20.56,7.42,32.89,4.58c25.4-5.85,51.47-6.72,76.78-8.93,22.85-2,82.39-8.06,127.78-7.24C474.05,350.84,352.27,335.92,302.9,337.81Z"/><path class="cls-7" d="M771,379.65c15.75,3.32,34.17,10.73,36.61,27.21,2,13.63-9.34,26.6-22.22,30.29s-22.68,4.38-35-.85c-25.27-10.77-52.15-16.28-78-23.11-23.34-6.17-84.34-29.31-131.56-36.42C590.75,357.46,720.12,368.93,771,379.65Z"/></svg>