<svg id="Layer_7" data-name="Layer 7" xmlns="http://www.w3.org/2000/svg" viewBox="0 0 1142.3 1080"><defs><style>.cls-1{fill:#cd80aa;}.cls-2{fill:#e991bd;}.cls-3{fill:#f2c2da;}.cls-4{fill:#fff;}.cls-5{fill:#e4dedb;}.cls-6{fill:#e86aa7;}.cls-7{fill:#b34699;}</style></defs><polygon class="cls-1" points="541.33 916.46 946.1 833.72 946.1 401.69 546.5 424.07 541.33 916.46"/><polygon class="cls-1" points="220.39 501.92 213.7 816.17 541.33 916.46 553.81 462.21 220.39 501.92"/><polygon class="cls-2" points="205.69 378.94 202.05 532.67 542.7 620.65 532.35 448.43 205.69 378.94"/><polygon class="cls-2" points="532.35 448.43 963.3 384.23 962.31 537.18 542.7 620.65 532.35 448.43"/><polygon class="cls-3" points="205.69 378.94 542.38 308.02 963.3 384.23 532.35 448.43 205.69 378.94"/><polygon class="cls-4" points="315.54 403.43 310.99 561.51 426.4 591.66 438.95 433.19 858.62 365.75 661.34 332.5 315.54 403.43"/><polygon class="cls-4" points="326.49 354.14 678.21 429.65 680.2 596.57 807.37 572.73 805.39 411.77 445.71 328.31 326.49 354.14"/><polygon class="cls-5" points="332.58 566.91 325.66 850.47 439.85 885.37 450.37 597.1 332.58 566.91"/><polygon class="cls-5" points="664.94 596.9 664.93 891.2 789.46 865.73 787.09 576.72 664.94 596.9"/><path class="cls-6" d="M463.92,228.9c-47.17-26.29-113.4-26.52-149.16,13.95-18.75,21.21-26.42,49.8-40.68,74.26-12.19,20.91-29.65,46.58-15.82,66.45,7.59,10.89,21.94,14.49,35.13,16C369.61,408.2,445.44,373.89,521.9,380c33.86,2.71,66.52,13.27,98.83,23.75l19.94,6.47c37,12,74.1,24,112,33,14.54,3.42,30.54,6.21,43.83-.62,13.77-7.07,20.73-22.39,28.12-36a235.38,235.38,0,0,1,65-75.49c20.59-15.5,47.08-35.92,39.14-60.44-4-12.42-16-20.24-27.48-26.5-56-30.57-121.89-48.06-184-33.61-65.49,15.23-131.88,85.33-143.75,149.9C536.37,371.05,501.37,247.7,463.92,228.9Z"/><path class="cls-6" d="M601.3,340c0,25-15.34,45.22-34.28,45.22S532.74,365,532.74,340,601.3,315,601.3,340Z"/><path class="cls-7" d="M303.31,338c-15.3.59-33.76,4.46-38.68,19-4.06,12,4.53,25.45,16,30.75s20.58,7.43,32.93,4.59c25.42-5.86,51.52-6.73,76.85-8.94,22.88-2,82.48-8.06,127.92-7.25C474.64,351,352.73,336.1,303.31,338Z"/><path class="cls-7" d="M771.87,379.87c15.76,3.32,34.2,10.74,36.64,27.23,2,13.65-9.34,26.63-22.24,30.33s-22.7,4.38-35-.85c-25.29-10.78-52.19-16.3-78.06-23.14C649.86,407.26,588.8,384.1,541.53,377,591.46,357.65,721,369.14,771.87,379.87Z"/></svg>