<svg id="Layer_5" data-name="Layer 5" xmlns="http://www.w3.org/2000/svg" viewBox="0 0 1142.3 1080"><defs><style>.cls-1{fill:#bf2826;}.cls-2{fill:#d13827;}.cls-3{fill:#d33127;}.cls-4{fill:#f26c41;}.cls-5{fill:#fff;}.cls-6{fill:#e4dedb;}.cls-7{fill:#e24225;}.cls-8{fill:#7b2116;}</style></defs><polygon class="cls-1" points="540.3 914.78 943.88 832.28 943.88 401.52 545.46 423.84 540.3 914.78"/><polygon class="cls-1" points="220.32 501.46 213.65 814.78 540.3 914.78 552.75 461.88 220.32 501.46"/><polygon class="cls-2" points="205.66 378.85 202.03 532.12 541.67 619.85 531.36 448.13 205.66 378.85"/><polygon class="cls-3" points="531.36 448.13 961.03 384.12 960.04 536.62 541.67 619.85 531.36 448.13"/><polygon class="cls-4" points="205.66 378.85 541.36 308.13 961.03 384.12 531.36 448.13 205.66 378.85"/><polygon class="cls-5" points="315.19 403.27 310.65 560.88 425.72 590.94 438.24 432.93 856.66 365.7 659.96 332.55 315.19 403.27"/><polygon class="cls-5" points="326.1 354.12 676.78 429.41 678.76 595.83 805.56 572.06 803.58 411.58 444.98 328.37 326.1 354.12"/><polygon class="cls-6" points="332.18 566.26 325.27 848.99 439.13 883.78 449.62 596.36 332.18 566.26"/><polygon class="cls-6" points="663.55 596.17 663.54 889.59 787.7 864.2 785.34 576.04 663.55 596.17"/><path class="cls-7" d="M463.12,229.25c-47-26.21-113.06-26.44-148.71,13.91-18.69,21.15-26.35,49.65-40.56,74-12.16,20.85-29.57,46.45-15.77,66.25,7.56,10.86,21.87,14.45,35,15.94,76,8.63,151.61-25.58,227.84-19.48,33.75,2.7,66.32,13.23,98.53,23.68l19.88,6.46c36.92,12,73.89,24,111.67,32.86,14.5,3.4,30.46,6.19,43.7-.62,13.74-7.05,20.67-22.32,28-35.89a234.6,234.6,0,0,1,64.86-75.27c20.53-15.46,46.94-35.81,39-60.26-4-12.38-16-20.18-27.39-26.42C843.46,214,777.72,196.53,715.8,210.94,650.5,226.12,584.31,296,572.47,360.39,535.36,371,500.47,248,463.12,229.25Z"/><path class="cls-7" d="M600.11,340c0,24.9-15.31,45.08-34.18,45.08S531.75,364.93,531.75,340,600.11,315.12,600.11,340Z"/><path class="cls-8" d="M303,338c-15.26.58-33.66,4.44-38.56,18.91-4.05,12,4.52,25.37,16,30.66s20.52,7.41,32.83,4.58c25.34-5.84,51.37-6.71,76.62-8.91,22.81-2,82.24-8,127.55-7.23C473.81,351,352.27,336.13,303,338Z"/><path class="cls-8" d="M770.16,379.77c15.72,3.32,34.1,10.71,36.54,27.16,2,13.6-9.32,26.54-22.18,30.23s-22.63,4.37-34.88-.85c-25.21-10.74-52-16.25-77.83-23.07-23.29-6.15-84.17-29.24-131.3-36.34C590.29,357.62,719.41,369.08,770.16,379.77Z"/></svg>