<svg id="Layer_15" data-name="Layer 15" xmlns="http://www.w3.org/2000/svg" viewBox="0 0 1142.3 1080"><defs><style>.cls-1{fill:#5580a8;}</style></defs><g id="_7MCNTW.tif" data-name="7MCNTW.tif"><path class="cls-1" d="M834.07,490.42c-4.71,1.35-9.46,2.6-14.14,4.07-17.22,5.4-34.42,10.89-52.2,16.52l44.79,22.18c-2.11,4.22-4,8.2-6.06,12.11-2.62,5-5.46,9.91-7.93,15-1.1,2.29-2,2.51-4.07,1.47-13-6.52-26.05-12.85-39.07-19.27-9.64-4.75-19.37-9.3-28.83-14.45-3.88-2.11-7.21-2-11.13-.64-7.26,2.57-14.65,4.65-22.58,7.12,2.59,2.59,4.8,4.92,7.12,7.12,5.54,5.25,11.13,10.45,16.71,15.66,6.91,6.46,13.85,12.89,20.75,19.38,3.56,3.35,7.12,6.71,10.53,10.25a4.08,4.08,0,0,1,.68,3.29q-4.08,12.63-8.54,25.11c-.31.85-1.76,1.56-2.75,1.7-15,2.17-30,4.23-44.93,6.32q-16.92,2.34-33.83,4.7a17.62,17.62,0,0,0-2.27.64c2.45,3.47,4.72,6.81,7.13,10,4,5.29,7.94,10.57,12.07,15.71a7.27,7.27,0,0,0,3.94,2.77c19.1,3,38.23,5.91,57.35,8.83,8,1.23,16.06,2.52,24.71,3.88-.77,3.38-1.63,6.43-2.14,9.56-.92,5.57-1.67,11.18-2.41,16.79-.85,6.43-.83,6.54-6.65,5.68-13.88-2.07-27.74-4.25-41.61-6.37-.58-.09-1.15-.16-2.7-.36l40.84,54.54c-7.72,5.48-15.47,11-23.26,16.47-1.52,1.06-3.32,2.76-4.75,2.5s-2.23-2.75-3.34-4.24q-9.29-12.45-18.59-24.89Q688,727.71,679,715.85c-.1-.13-.35-.14-1-.36-2.57,15.7-5.13,31.33-7.79,47.6L636.52,758c1.37-9.68,2.61-19,4-28.31s3-18.58,4.58-27.86c1.19-7.14,2.2-14.32,3.69-21.38.75-3.55-.63-5.84-2.4-8.18-3.94-5.18-7.92-10.32-11.87-15.49-1.68-2.19-3.32-4.41-5.21-6.92-2.63,4.91-5.17,9.45-7.54,14.1-2.49,4.89-4.72,10-7.23,14.83-5.09,9.89-10.29,19.7-15.43,29.56-1.65,3.17-3.15,6.45-4.9,9.55a3.47,3.47,0,0,1-2.44,1.66q-13.83.16-27.66,0a3.34,3.34,0,0,1-2.39-1.69c-3.91-7.71-7.64-15.52-11.52-23.25q-6.72-13.41-13.59-26.72c-3-5.87-6.13-11.68-9.42-17.93-2.06,2.54-4.09,4.9-6,7.4-4.62,6.11-9.29,12.17-13.65,18.51-.77,1.12-.32,3.52-.05,5.26,1.05,6.61,2.32,13.18,3.38,19.79,2,12.61,3.92,25.26,6,37.86,1,6.26,2.34,12.45,3.6,19.11l-34.1,5.24c-2.7-16-5.34-31.65-8.12-48.1l-40.81,54.41-27.87-19.6,41-54.62-49.73,7.6c-1.87-11-3.67-21.69-5.56-32.83,4-.68,7.72-1.35,11.45-1.93l63.45-9.75a22.93,22.93,0,0,1,4.94-.68c3,.21,4.95-1.69,6.65-3.93,3.81-5,7.48-10.23,11.25-15.31,2.33-3.15,4.74-6.22,7.51-9.85-2.83-.43-5.34-.85-7.87-1.21-24.6-3.5-49.2-7-73.81-10.41-2-.28-2.77-1.15-3.38-3.17-2.36-7.81-4.9-15.54-7.39-23.3-.22-.68-.58-1.31-1-2.29l56.64-53.5c-9.5-3-18.53-6.16-27.71-8.62-1.89-.51-4.4,1.27-6.5,2.31Q401.78,542,374.11,555.7l-14.53,7.2-15.69-29.65L388.81,511,322.58,490.1c3.58-10.63,7.09-21.08,10.68-31.73l66.21,20.86-22.82-43.51c4.08-2.1,7.93-4.13,11.82-6.06,5.53-2.74,11.12-5.3,16.61-8.13,1.84-.95,2.63-.66,3.64,1.34,5.24,10.46,10.62,20.83,16,31.2q6.69,12.85,13.51,25.64,3.47,6.51,7.11,12.91a3.56,3.56,0,0,0,1.71,1.6c9.77,3.13,19.56,6.18,29.35,9.23a4.36,4.36,0,0,0,1.21-.1c-.88-4.5-1.83-8.86-2.59-13.26-1-5.89-1.82-11.82-2.81-17.71q-2.34-13.9-4.81-27.79c-1.22-6.9-2.44-13.81-3.82-20.67a3.39,3.39,0,0,1,1.56-4c7.29-5,14.51-10.18,21.84-15.13a3.67,3.67,0,0,1,3.19.15c6.77,3.36,13.48,6.89,20.22,10.35Q529.69,425.17,549,435c3.87,2,7.76,3.9,12,6,0-9.48,0-18.4-.06-27.32a3.92,3.92,0,0,0-1.2-2.43c-8.21-7.93-16.49-15.76-24.7-23.68-5.22-5-10.33-10.2-15.53-15.25C514,367,508.36,361.65,502.77,356.3c-.52-.5-1.08-.94-1.82-1.58,2.27-2.34,4.19-4.43,6.21-6.39,5.49-5.31,11.1-10.47,16.51-15.89,1.52-1.51,2.44-1.14,3.69.09q12.66,12.5,25.38,25c2.53,2.47,5.16,4.81,8.26,7.69V297.89h34.72v67.24c7-6.76,13.49-13,20-19.34,4.76-4.62,9.47-9.31,14.32-13.82a2.55,2.55,0,0,1,2.66.26c7.61,7.34,15.14,14.8,22.76,22.3-.83.75-1.67,1.45-2.45,2.22-5.31,5.23-10.57,10.53-15.93,15.71-6.73,6.51-13.55,12.91-20.31,19.39-5.89,5.64-11.79,11.25-17.57,17-1.39,1.38-3.25,3.27-3.32,5-.33,8.9-.15,17.84-.15,27.07.9-.39,1.53-.61,2.12-.92,9.66-4.94,19.31-9.93,29-14.86,13.3-6.77,26.64-13.46,39.91-20.3,1.58-.81,2.6-.55,4,.45,7,5.08,14.17,9.95,21.18,15.07a4.33,4.33,0,0,1,1.37,3.32c-.52,3.62-1.53,7.13-2.16,10.73q-3.06,17.42-6,34.87c-.92,5.46-1.63,11-2.61,16.42-1,5.88-2.31,11.71-3.6,18.12,10.74-3.4,20.7-6.53,30.64-9.74a3.77,3.77,0,0,0,1.93-1.69c2.79-5,5.5-10.13,8.19-15.24q7.11-13.51,14.17-27.09c3.87-7.48,7.63-15,11.5-22.52,1.2-2.3,2.62-4.46,4.09-6.94l30.49,15L757,479.21l66.22-20.83c1,2.74,1.84,5.21,2.66,7.72,2.28,7,4.51,14.07,6.82,21.08a8.26,8.26,0,0,0,1.34,1.93ZM560.64,530A3.85,3.85,0,0,0,561,529c0-16.13.06-32.26,0-48.39a3.92,3.92,0,0,0-1.84-2.74c-5.18-2.76-10.46-5.28-15.68-8C531.83,464,520.26,458,508.66,452c-1.83-.94-3.74-1.73-6.05-2.79a36.93,36.93,0,0,1,1.24,4q2.43,13.55,4.76,27.1c1.89,10.86,3.83,21.7,5.58,32.58.34,2.07,1.13,2.9,2.84,3.42,9,2.74,17.86,5.6,26.79,8.39C549.43,526.51,555.06,528.23,560.64,530Zm35.07-.3a3.72,3.72,0,0,0,1.11.05c14.66-4.6,29.33-9.2,44-13.93a3.69,3.69,0,0,0,1.73-2.48c1.77-9.67,3.39-19.36,5.12-29,1-5.83,2.3-11.61,3.3-17.44,1-5.59,1.71-11.22,2.64-17.44-7.66,3.93-14.73,7.58-21.81,11.18-11.26,5.73-22.52,11.46-33.82,17.09-1.84.91-2.28,2.17-2.27,4.28.08,14.94,0,29.88,0,44.81ZM606.05,562c1.39,1.66,2.56,2.92,3.58,4.31q10.46,14.13,20.86,28.31c1.57,2.13,3.15,3.43,6.11,3,13.49-2.15,27-3.87,40.55-5.77,7.44-1,14.89-2.12,22.76-3.25a17.77,17.77,0,0,0-1.4-1.76c-4.16-3.91-8.37-7.74-12.5-11.68-8.48-8.09-16.9-16.28-25.42-24.34-2.65-2.51-4.89-5-9.4-3.24-9.49,3.68-19.34,6.18-29,9.22C616.93,558.4,611.72,560.15,606.05,562ZM456.42,588c.53.37.67.55.84.57q32.16,4.57,64.33,9.08a3.43,3.43,0,0,0,2.56-.84,26.17,26.17,0,0,0,3.14-3.77q11.41-15.46,22.84-31c-.08-.08-.2-.28-.35-.33-15.5-4.9-31-9.75-46.48-14.75a4.42,4.42,0,0,0-4.81,1.19c-2.24,2.09-4.37,4.3-6.58,6.43-5.07,4.87-10.13,9.75-15.24,14.56C470,575.42,463.31,581.6,456.42,588Zm121.76,86.25c3.31-6.3,6.36-11.92,9.25-17.64,3.9-7.71,7.64-15.53,11.54-23.25,2-4,4.25-7.91,6.42-11.84.85-1.54,1-2.8-.18-4.35-5.79-7.53-11.49-15.15-17.23-22.73-3.16-4.18-6.35-8.33-9.76-12.8-4.39,5.83-8.6,11.46-12.83,17.05-4,5.27-7.94,10.59-12.07,15.73-2.86,3.56-3.25,4.53-1.21,8.71,2.3,4.72,4.9,9.26,7.26,13.94,3.75,7.43,7.37,14.95,11.12,22.39C572.94,664.33,575.5,669.12,578.18,674.26Z"/></g></svg>