<svg id="Layer_15" data-name="Layer 15" xmlns="http://www.w3.org/2000/svg" viewBox="0 0 1142.3 1080"><defs><style>.cls-1{fill:#5580a8;}</style></defs><g id="_7MCNTW.tif" data-name="7MCNTW.tif"><path class="cls-1" d="M756.68,520.25c-3.51,1-7,1.93-10.54,3-12.83,4-25.65,8.12-38.9,12.32l33.38,16.53c-1.57,3.14-3,6.11-4.52,9-2,3.74-4.07,7.38-5.91,11.19-.82,1.7-1.48,1.87-3,1.09-9.68-4.86-19.41-9.57-29.12-14.36-7.18-3.54-14.44-6.93-21.49-10.77a9.35,9.35,0,0,0-8.3-.48c-5.4,1.92-10.91,3.47-16.82,5.31,1.93,1.93,3.58,3.67,5.3,5.31q6.21,5.87,12.46,11.67c5.15,4.82,10.32,9.61,15.46,14.45,2.66,2.49,5.31,5,7.85,7.64a3,3,0,0,1,.51,2.45q-3,9.4-6.37,18.71a2.82,2.82,0,0,1-2,1.27c-11.15,1.62-22.32,3.15-33.48,4.71-8.41,1.17-16.81,2.32-25.22,3.5a13.65,13.65,0,0,0-1.69.48c1.83,2.58,3.52,5.08,5.31,7.47,3,4,5.92,7.89,9,11.71a5.48,5.48,0,0,0,2.94,2.07c14.24,2.27,28.49,4.4,42.74,6.58,6,.92,12,1.88,18.42,2.89-.57,2.52-1.22,4.8-1.6,7.12-.68,4.16-1.24,8.34-1.79,12.52-.64,4.79-.62,4.88-5,4.23-10.34-1.54-20.68-3.16-31-4.75l-2-.26,30.45,40.65c-5.76,4.08-11.54,8.2-17.34,12.27-1.13.79-2.47,2.06-3.54,1.87s-1.66-2.05-2.49-3.16q-6.93-9.28-13.85-18.55-6.68-8.88-13.38-17.72c-.08-.1-.26-.1-.72-.27-1.91,11.7-3.82,23.35-5.81,35.48l-25.11-3.82c1-7.21,1.95-14.17,3-21.1s2.26-13.84,3.41-20.76c.89-5.32,1.64-10.68,2.75-15.94.56-2.64-.47-4.35-1.79-6.09-2.93-3.87-5.9-7.7-8.84-11.55-1.25-1.63-2.48-3.28-3.88-5.15-2,3.65-3.86,7-5.63,10.5-1.85,3.65-3.52,7.42-5.39,11.05-3.79,7.38-7.67,14.69-11.49,22-1.23,2.36-2.35,4.8-3.66,7.11a2.56,2.56,0,0,1-1.82,1.24q-10.3.13-20.61,0a2.51,2.51,0,0,1-1.78-1.26c-2.91-5.75-5.7-11.57-8.59-17.33q-5-10-10.13-19.92c-2.25-4.37-4.57-8.71-7-13.37-1.54,1.9-3.05,3.66-4.46,5.52-3.44,4.55-6.93,9.08-10.18,13.8-.57.84-.24,2.63,0,3.92.78,4.93,1.72,9.82,2.52,14.75,1.51,9.4,2.92,18.82,4.47,28.22.76,4.66,1.74,9.28,2.68,14.24l-25.41,3.91c-2-11.94-4-23.59-6.06-35.86L461.1,728.18l-20.78-14.61,30.54-40.71-37.06,5.67c-1.4-8.24-2.74-16.17-4.15-24.47,3-.51,5.76-1,8.53-1.44l47.3-7.27a17.34,17.34,0,0,1,3.68-.51c2.26.16,3.69-1.25,4.95-2.93,2.84-3.76,5.58-7.62,8.39-11.41,1.73-2.34,3.53-4.63,5.6-7.34-2.11-.32-4-.63-5.87-.9-18.33-2.6-36.67-5.23-55-7.76-1.49-.2-2.07-.85-2.52-2.36-1.76-5.82-3.65-11.58-5.51-17.36a15.6,15.6,0,0,0-.76-1.71l42.21-39.88c-7.08-2.25-13.81-4.59-20.64-6.42-1.42-.38-3.28,1-4.85,1.72q-20.65,10.15-41.29,20.41L403,574.27l-11.7-22.11,33.48-16.58L375.46,520l8-23.66,49.35,15.55-17-32.43c3-1.56,5.91-3.08,8.81-4.51,4.12-2,8.29-3.95,12.38-6.06,1.37-.71,2-.49,2.71,1,3.91,7.79,7.92,15.52,11.94,23.25q5,9.59,10.06,19.11,2.59,4.86,5.3,9.62a2.69,2.69,0,0,0,1.28,1.2c7.28,2.33,14.58,4.6,21.88,6.87a3.38,3.38,0,0,0,.9-.07c-.66-3.35-1.37-6.6-1.93-9.88-.76-4.39-1.37-8.81-2.1-13.2q-1.75-10.37-3.58-20.71c-.91-5.15-1.83-10.3-2.85-15.41a2.51,2.51,0,0,1,1.16-3c5.43-3.75,10.81-7.59,16.28-11.27a2.72,2.72,0,0,1,2.37.1c5.05,2.51,10.05,5.14,15.08,7.72L544.2,479c2.88,1.47,5.78,2.9,9,4.5,0-7.07,0-13.72,0-20.36a3,3,0,0,0-.89-1.82c-6.12-5.91-12.3-11.74-18.42-17.65-3.89-3.75-7.69-7.6-11.57-11.36-4.14-4-8.32-8-12.49-12-.39-.37-.81-.7-1.36-1.17,1.69-1.75,3.12-3.31,4.63-4.77,4.1-3.95,8.27-7.8,12.31-11.84,1.13-1.13,1.82-.85,2.74.06q9.45,9.31,18.92,18.6c1.88,1.84,3.85,3.59,6.16,5.73V376.74H579v50.12l14.89-14.41c3.55-3.44,7.06-6.94,10.68-10.3a1.89,1.89,0,0,1,2,.19c5.67,5.47,11.28,11,17,16.62-.62.56-1.24,1.08-1.82,1.66-4,3.9-7.88,7.85-11.87,11.71-5,4.85-10.11,9.62-15.15,14.45-4.38,4.2-8.78,8.38-13.09,12.68-1,1-2.42,2.44-2.47,3.73-.25,6.64-.12,13.3-.12,20.18.68-.29,1.14-.45,1.59-.68q10.8-5.54,21.6-11.08c9.91-5,19.85-10,29.74-15.13a2.46,2.46,0,0,1,3,.33c5.23,3.79,10.56,7.42,15.78,11.24a3.2,3.2,0,0,1,1,2.48c-.38,2.69-1.14,5.31-1.61,8q-2.28,13-4.45,26c-.68,4.07-1.21,8.18-1.94,12.24-.79,4.38-1.73,8.72-2.68,13.5,8-2.53,15.42-4.86,22.83-7.26a2.84,2.84,0,0,0,1.44-1.26c2.08-3.75,4.1-7.55,6.1-11.35q5.31-10.08,10.57-20.2c2.88-5.57,5.68-11.2,8.57-16.78.89-1.71,2-3.32,3.05-5.18l22.72,11.19-17.07,32.48,49.36-15.53c.7,2.05,1.37,3.89,2,5.75,1.7,5.24,3.36,10.49,5.08,15.72a6.21,6.21,0,0,0,1,1.44ZM552.89,549.71a2.94,2.94,0,0,0,.25-.68c0-12,.05-24,0-36.07a2.92,2.92,0,0,0-1.37-2c-3.86-2.06-7.79-3.94-11.68-5.93-8.64-4.44-17.27-8.92-25.91-13.36-1.37-.7-2.79-1.29-4.51-2.08a29.15,29.15,0,0,1,.93,3q1.8,10.09,3.54,20.21c1.41,8.09,2.85,16.17,4.16,24.28a2.68,2.68,0,0,0,2.12,2.55c6.67,2,13.31,4.17,20,6.25C544.54,547.14,548.73,548.42,552.89,549.71Zm26.14-.23a2.73,2.73,0,0,0,.82,0c10.93-3.43,21.86-6.86,32.77-10.38a2.75,2.75,0,0,0,1.29-1.86c1.32-7.2,2.52-14.42,3.82-21.63.77-4.34,1.71-8.65,2.46-13,.71-4.16,1.27-8.36,2-13-5.71,2.93-11,5.64-16.25,8.33-8.4,4.27-16.79,8.54-25.21,12.74-1.37.68-1.7,1.61-1.69,3.19.06,11.13,0,22.26,0,33.39Zm7.7,24.11c1,1.24,1.91,2.18,2.68,3.21q7.79,10.55,15.54,21.11c1.17,1.58,2.35,2.55,4.55,2.2,10.06-1.6,20.15-2.89,30.23-4.3,5.54-.77,11.09-1.58,17-2.42a16.65,16.65,0,0,0-1-1.32c-3.1-2.91-6.24-5.76-9.32-8.7-6.32-6-12.6-12.13-18.94-18.14-2-1.87-3.65-3.72-7-2.41-7.07,2.74-14.41,4.6-21.63,6.86C594.84,570.91,591,572.22,586.73,573.59ZM475.21,593c.4.27.5.41.63.42q24,3.42,47.95,6.77a2.54,2.54,0,0,0,1.9-.63,18.86,18.86,0,0,0,2.34-2.81q8.52-11.52,17-23.09c-.07-.06-.15-.21-.26-.24-11.55-3.66-23.12-7.27-34.65-11a3.3,3.3,0,0,0-3.58.9c-1.67,1.55-3.26,3.2-4.91,4.78-3.78,3.63-7.54,7.27-11.36,10.86C485.35,583.6,480.35,588.2,475.21,593ZM566,657.26c2.47-4.69,4.74-8.88,6.9-13.15,2.91-5.75,5.69-11.57,8.6-17.32,1.51-3,3.16-5.9,4.78-8.83a2.59,2.59,0,0,0-.13-3.24c-4.32-5.61-8.56-11.29-12.84-16.94-2.36-3.12-4.74-6.21-7.28-9.54-3.27,4.34-6.4,8.54-9.56,12.71-3,3.93-5.92,7.89-9,11.72-2.12,2.65-2.42,3.37-.9,6.49,1.71,3.52,3.65,6.9,5.41,10.39,2.79,5.54,5.5,11.14,8.29,16.69C562.05,649.86,564,653.43,566,657.26Z"/></g></svg>