<svg id="Layer_13" data-name="Layer 13" xmlns="http://www.w3.org/2000/svg" viewBox="0 0 1142.3 1080"><defs><style>.cls-1{fill:#123627;}.cls-2{fill:#faca0c;}</style></defs><g id="uFSTuv.tif"><path class="cls-1" d="M571.28,719.92V668H451.73l-.93-1.86,92.81-67.91h-61.5l-1.05-1.72,80.31-85.37H510.45l78.17-106,78,105.55H615.54c27.84,29.57,54.23,57.62,82,87.09H636l-.77,1.8,92.42,66.71v1.45H606v52.16Z"/></g><g id="zi3f82"><path class="cls-2" d="M600.65,410h.26a2.52,2.52,0,0,0,2.4-2.77c-.13-1.33-.36-2.66-.58-4-.39-2.41-.81-4.82-1.22-7.22a.46.46,0,0,1,.15-.48c1-.95,2-1.9,2.92-2.87,1.7-1.7,3.39-3.4,5.07-5.12a2.1,2.1,0,0,0,.54-.82,3,3,0,0,0-.31-2.42,2.26,2.26,0,0,0-1.7-1.06c-1.79-.31-3.58-.61-5.37-.88s-3.85-.58-5.78-.86a.37.37,0,0,1-.32-.24c-.55-1.13-1.1-2.25-1.66-3.37l-3.25-6.48a2.62,2.62,0,0,0-2.28-1.52,2.71,2.71,0,0,0-2.56,1.31c-.25.54-.55,1-.81,1.58q-2.07,4.2-4.13,8.39a.56.56,0,0,1-.49.35c-.49.05-1,.14-1.48.21-2.21.33-4.44.65-6.65,1-1.1.18-2.2.4-3.29.63a2,2,0,0,0-1.54,1.43,4.08,4.08,0,0,0-.2.92,2.12,2.12,0,0,0,.61,1.81c.93.93,1.81,1.9,2.74,2.82,1.77,1.76,3.56,3.49,5.33,5.24a.39.39,0,0,1,.14.3c-.18,1.13-.39,2.25-.57,3.38-.43,2.59-.85,5.18-1.24,7.78a2.67,2.67,0,0,0,2.19,3,1.52,1.52,0,0,0,.52,0,7,7,0,0,0,2.2-.83q4.43-2.28,8.83-4.59a.41.41,0,0,1,.43,0c1.65.88,3.3,1.76,5,2.62s3.2,1.64,4.8,2.45A2.39,2.39,0,0,0,600.65,410Z"/><path class="cls-2" d="M600.65,410a2.39,2.39,0,0,1-1.34-.29c-1.6-.81-3.21-1.62-4.8-2.45s-3.31-1.74-5-2.62a.41.41,0,0,0-.43,0q-4.41,2.31-8.83,4.59a7,7,0,0,1-2.2.83,1.52,1.52,0,0,1-.52,0,2.67,2.67,0,0,1-2.19-3c.39-2.6.81-5.19,1.24-7.78.18-1.13.39-2.25.57-3.38a.39.39,0,0,0-.14-.3c-1.77-1.75-3.56-3.48-5.33-5.24-.93-.92-1.81-1.89-2.74-2.82a2.12,2.12,0,0,1-.61-1.81,4.08,4.08,0,0,1,.2-.92,2,2,0,0,1,1.54-1.43c1.09-.23,2.19-.45,3.29-.63,2.21-.34,4.44-.66,6.65-1,.5-.07,1-.16,1.48-.21a.56.56,0,0,0,.49-.35q2.06-4.2,4.13-8.39c.26-.53.56-1,.81-1.58a2.71,2.71,0,0,1,2.56-1.31,2.62,2.62,0,0,1,2.28,1.52l3.25,6.48c.56,1.12,1.11,2.24,1.66,3.37a.37.37,0,0,0,.32.24c1.93.28,3.86.56,5.78.86s3.58.57,5.37.88a2.26,2.26,0,0,1,1.7,1.06,3,3,0,0,1,.31,2.42,2.1,2.1,0,0,1-.54.82c-1.68,1.72-3.37,3.42-5.07,5.12-1,1-1.94,1.92-2.92,2.87a.46.46,0,0,0-.15.48c.41,2.4.83,4.81,1.22,7.22.22,1.33.45,2.66.58,4a2.52,2.52,0,0,1-2.4,2.77Z"/></g></svg>