<svg id="Layer_10" data-name="Layer 10" xmlns="http://www.w3.org/2000/svg" viewBox="0 0 1142.3 1080"><defs><style>.cls-1{fill:#f06361;}.cls-2{fill:#ee3932;}.cls-3,.cls-4{fill:none;stroke-miterlimit:10;stroke-width:12.98px;}.cls-3{stroke:#ee3932;}.cls-4{stroke:#f06361;}</style></defs><polygon class="cls-1" points="443.51 296.11 443.51 323.35 397.55 362.5 414.57 393.15 358.39 432.3 383.93 478.27 332.86 515.72 389.04 563.38 358.39 605.94 423.09 646.8 453.73 668.93 453.73 735.33 654.61 730.22 651.2 651.91 680.14 638.29 741.43 595.73 702.28 559.98 758.45 510.61 707.38 469.75 736.32 430.6 671.63 391.44 692.06 357.4 644.39 321.65 642.69 296.11 443.51 296.11"/><polygon class="cls-2" points="397.55 362.5 692.06 357.4 671.63 391.44 414.57 393.15 397.55 362.5"/><polyline class="cls-2" points="358.39 432.3 736.32 430.6 707.38 469.75 383.93 478.27"/><polygon class="cls-2" points="332.86 515.72 758.45 510.61 702.28 559.98 389.04 563.38 332.86 515.72"/><polygon class="cls-2" points="358.39 605.94 741.43 595.73 651.37 662.9 453.73 668.93 358.39 605.94"/><polygon class="cls-2" points="453.85 689.24 652.91 686.14 654.61 730.22 453.73 735.33 453.85 689.24"/><polygon class="cls-2" points="443.51 296.11 443.51 323.35 644.39 321.65 644.88 296.46 443.51 296.11"/><path class="cls-3" d="M562.09,824.6a152.6,152.6,0,0,0,56.27,82.78"/><path class="cls-4" d="M551.44,822.85c-1.4,17.33-2.79,34.83-.24,52s9.42,34.31,22.23,46"/><ellipse class="cls-2" cx="552.86" cy="805.03" rx="24.24" ry="23.44"/><circle class="cls-2" cx="551.88" cy="758.71" r="13.23"/></svg>