<svg id="Layer_9" data-name="Layer 9" xmlns="http://www.w3.org/2000/svg" viewBox="0 0 1142.3 1080"><defs><style>.cls-1{fill:#fcbc70;}.cls-2{fill:#f26d21;}.cls-3,.cls-4{fill:none;stroke-miterlimit:10;stroke-width:13.02px;}.cls-3{stroke:#f26d21;}.cls-4{stroke:#fcbc70;}</style></defs><polygon class="cls-1" points="444.02 294.65 444.02 321.97 397.92 361.24 415 391.98 358.65 431.25 384.26 477.35 333.04 514.91 389.39 562.72 358.65 605.4 423.53 646.38 454.27 668.58 454.27 735.16 655.74 730.04 652.33 651.5 681.35 637.84 742.82 595.16 703.55 559.3 759.89 509.79 708.67 468.81 737.7 429.54 672.82 390.27 693.3 356.12 645.5 320.27 643.79 294.65 444.02 294.65"/><polygon class="cls-2" points="397.92 361.24 693.3 356.12 672.82 390.27 415 391.98 397.92 361.24"/><polyline class="cls-2" points="358.65 431.25 737.7 429.54 708.67 468.81 384.26 477.35"/><polygon class="cls-2" points="333.04 514.91 759.89 509.79 703.55 559.3 389.39 562.72 333.04 514.91"/><polygon class="cls-2" points="358.65 605.4 742.82 595.16 652.49 662.53 454.27 668.58 358.65 605.4"/><polygon class="cls-2" points="454.39 688.95 654.04 685.84 655.74 730.04 454.27 735.16 454.39 688.95"/><polygon class="cls-2" points="444.02 294.65 444.02 321.97 645.5 320.27 645.98 295.01 444.02 294.65"/><path class="cls-3" d="M563,824.7a153,153,0,0,0,56.44,83"/><path class="cls-4" d="M552.26,823c-1.39,17.38-2.79,34.93-.23,52.18s9.44,34.4,22.29,46.18"/><ellipse class="cls-2" cx="553.69" cy="805.08" rx="24.32" ry="23.51"/><circle class="cls-2" cx="552.71" cy="758.62" r="13.27"/></svg>