<svg id="Layer_10" data-name="Layer 10" xmlns="http://www.w3.org/2000/svg" viewBox="0 0 1142.3 1080"><defs><style>.cls-1{fill:#8962a8;}.cls-2{fill:#704299;}.cls-3,.cls-4{fill:none;stroke-miterlimit:10;stroke-width:12.98px;}.cls-3{stroke:#704299;}.cls-4{stroke:#8962a8;}</style></defs><polygon class="cls-1" points="444.53 295.09 444.53 322.33 398.56 361.49 415.59 392.13 359.41 431.29 384.94 477.25 333.87 514.7 390.05 562.37 359.41 604.93 424.1 645.78 454.74 667.92 454.74 734.31 655.62 729.2 652.22 650.89 681.16 637.27 742.44 594.71 703.29 558.96 759.47 509.59 708.4 468.74 737.34 429.58 672.65 390.43 693.07 356.38 645.41 320.63 643.71 295.09 444.53 295.09"/><polygon class="cls-2" points="398.56 361.49 693.07 356.38 672.65 390.43 415.59 392.13 398.56 361.49"/><polyline class="cls-2" points="359.41 431.29 737.34 429.58 708.4 468.74 384.94 477.25"/><polygon class="cls-2" points="333.87 514.7 759.47 509.59 703.29 558.96 390.05 562.37 333.87 514.7"/><polygon class="cls-2" points="359.41 604.93 742.44 594.71 652.38 661.89 454.74 667.92 359.41 604.93"/><polygon class="cls-2" points="454.86 688.23 653.93 685.13 655.62 729.2 454.74 734.31 454.86 688.23"/><polygon class="cls-2" points="444.53 295.09 444.53 322.33 645.41 320.63 645.89 295.44 444.53 295.09"/><path class="cls-3" d="M563.1,823.58a152.67,152.67,0,0,0,56.28,82.79"/><path class="cls-4" d="M552.45,821.84c-1.39,17.32-2.78,34.83-.24,52s9.42,34.3,22.23,46"/><ellipse class="cls-2" cx="553.87" cy="804.01" rx="24.25" ry="23.44"/><circle class="cls-2" cx="552.89" cy="757.69" r="13.23"/></svg>