<svg id="Layer_8" data-name="Layer 8" xmlns="http://www.w3.org/2000/svg" viewBox="0 0 1142.3 1080"><defs><style>.cls-1{fill:#fcd401;}.cls-2{fill:#efc319;}.cls-3,.cls-4{fill:none;stroke-miterlimit:10;}.cls-3{stroke:#efc319;stroke-width:13.88px;}.cls-4{stroke:#fcd401;stroke-width:11.11px;}.cls-5{fill:#fdbb11;}</style></defs><polygon class="cls-1" points="445.52 297.3 445.52 324.42 399.75 363.41 416.71 393.92 360.77 432.91 386.19 478.68 335.34 515.97 391.28 563.43 360.77 605.81 425.18 646.5 455.69 668.53 455.69 734.64 655.72 729.56 652.33 651.58 681.14 638.02 742.17 595.64 703.18 560.04 759.12 510.89 708.27 470.2 737.08 431.22 672.67 392.23 693.01 358.33 645.55 322.73 643.85 297.3 445.52 297.3"/><polygon class="cls-2" points="399.75 363.41 693.01 358.33 672.67 392.23 416.71 393.92 399.75 363.41"/><polyline class="cls-2" points="360.77 432.91 737.08 431.22 708.27 470.2 386.19 478.68"/><polygon class="cls-2" points="335.34 515.97 759.12 510.89 703.18 560.04 391.28 563.43 335.34 515.97"/><polygon class="cls-2" points="360.77 605.81 742.17 595.64 652.49 662.53 455.69 668.53 360.77 605.81"/><polygon class="cls-2" points="455.81 688.75 654.03 685.67 655.72 729.56 455.69 734.64 455.81 688.75"/><polygon class="cls-2" points="445.52 297.3 445.52 324.42 645.55 322.73 646.03 297.65 445.52 297.3"/><path class="cls-3" d="M563.59,823.54a152,152,0,0,0,56,82.43"/><path class="cls-4" d="M553,821.8c-1.39,17.25-2.78,34.68-.24,51.8s9.38,34.15,22.14,45.85"/><ellipse class="cls-2" cx="554.4" cy="804.05" rx="24.14" ry="23.34"/><circle class="cls-5" cx="553.42" cy="757.93" r="13.17"/></svg>