<svg id="Layer_10" data-name="Layer 10" xmlns="http://www.w3.org/2000/svg" viewBox="0 0 1142.3 1080"><defs><style>.cls-1{fill:#fcd401;}</style></defs><g id="dt2SuJ.tif"><path class="cls-1" d="M612.56,718c-.44.13-.89.22-1.31.38a220.73,220.73,0,0,1-71.91,14.89,216.18,216.18,0,0,1-70.45-8.86,209.2,209.2,0,0,1-86.29-50c-3.61-3.46-7-7.18-10.42-10.78-.11-.12-.21-.25-.14-.17,52.69,32.14,109.49,40.08,170.64,21.27q90.71-31,127.09-117.66,32.06-83.91-9.77-161.51c-29.34-51-74.1-81.78-133-94,2.57-.12,5.19-.27,7.8-.35a215.9,215.9,0,0,1,90.59,16.74,206.16,206.16,0,0,1,82.16,61.68,179.25,179.25,0,0,1,16.09,23.35c2.87,5,5.5,10.2,8.25,15.31.27.5.57,1,.85,1.48L738.49,443c.13.45.24.91.39,1.36,1.7,5,3.51,10.05,5.09,15.13A174.92,174.92,0,0,1,750,486.53q9.81,67.74-22.77,129.65a215.67,215.67,0,0,1-55,66.84,209.35,209.35,0,0,1-25.35,17.84c-5.09,3-10.36,5.74-15.57,8.58-1.63.89-3.3,1.72-5,2.57Z"/></g></svg>