<svg id="Layer_11" data-name="Layer 11" xmlns="http://www.w3.org/2000/svg" viewBox="0 0 1142.3 1080"><defs><style>.cls-1{fill:#f26e21;}</style></defs><g id="dt2SuJ.tif"><path class="cls-1" d="M613.6,718.46a11.58,11.58,0,0,0-1.31.38,221,221,0,0,1-72,14.89,216.16,216.16,0,0,1-70.49-8.86,209.37,209.37,0,0,1-86.34-50c-3.61-3.47-7-7.19-10.43-10.79-.11-.12-.21-.25-.14-.17C425.66,696,482.49,704,543.67,685.15q90.78-31,127.17-117.74,32.08-84-9.77-161.61C631.71,354.74,586.92,324,528,311.7c2.58-.11,5.2-.27,7.81-.35a216,216,0,0,1,90.65,16.75,206.39,206.39,0,0,1,82.21,61.72,178.45,178.45,0,0,1,16.1,23.36c2.87,5,5.51,10.21,8.25,15.32.27.5.57,1,.86,1.48l5.73,13.29c.13.46.23.92.39,1.36,1.7,5.05,3.51,10.06,5.09,15.15a175.07,175.07,0,0,1,6.07,27.09Q761,554.66,728.37,616.6a215.67,215.67,0,0,1-55,66.88A207.66,207.66,0,0,1,648,701.33c-5.09,3-10.37,5.75-15.57,8.59-1.64.89-3.31,1.72-5,2.57Z"/></g></svg>