<svg id="Layer_12" data-name="Layer 12" xmlns="http://www.w3.org/2000/svg" viewBox="0 0 1142.3 1080"><defs><style>.cls-1{fill:#faaf61;}</style></defs><g id="dt2SuJ.tif"><path class="cls-1" d="M613.22,718.94c-.44.12-.89.21-1.31.37a219.57,219.57,0,0,1-71.79,14.81,215.43,215.43,0,0,1-70.35-9,209.6,209.6,0,0,1-86.25-50.2c-3.6-3.47-6.95-7.2-10.41-10.81-.12-.12-.22-.25-.15-.17,52.67,32.25,109.4,40.29,170.43,21.54q90.54-30.88,126.74-117.63,31.9-84-10-161.73c-29.38-51.14-74.12-82-132.94-94.36,2.58-.11,5.19-.26,7.8-.33a215.23,215.23,0,0,1,90.48,16.89,206.8,206.8,0,0,1,82.14,61.87,179.46,179.46,0,0,1,16.09,23.4c2.88,5.05,5.52,10.23,8.27,15.35.27.5.57,1,.85,1.48l5.74,13.31c.13.45.24.91.39,1.36,1.7,5.05,3.52,10.07,5.11,15.16a176.66,176.66,0,0,1,6.09,27.12q9.89,67.85-22.56,129.79A215,215,0,0,1,672.78,684a207.4,207.4,0,0,1-25.28,17.83c-5.08,3-10.34,5.73-15.53,8.56-1.64.9-3.3,1.72-5,2.58Z"/></g></svg>